<?xml version="1.0" standalone="no"?>
<!DOCTYPE svg PUBLIC "-//W3C//DTD SVG 20010904//EN"
 "http://www.w3.org/TR/2001/REC-SVG-20010904/DTD/svg10.dtd">
<svg version="1.0" xmlns="http://www.w3.org/2000/svg"
 width="260.000000pt" height="260.000000pt" viewBox="0 0 260.000000 260.000000"
 preserveAspectRatio="xMidYMid meet">
<metadata>
Created by potrace 1.11, written by Peter Selinger 2001-2013
</metadata>
<g transform="translate(0.000000,260.000000) scale(0.100000,-0.100000)"
fill="#000000" stroke="none">
<path d="M2217 2499 c-26 -4 -67 -19 -90 -33 -23 -14 -430 -413 -903 -888
l-862 -863 -47 -110 c-25 -60 -56 -130 -67 -155 -55 -119 -148 -343 -145 -347
4 -3 203 80 482 202 l130 56 863 862 c475 474 872 876 883 893 46 75 52 172
15 247 -47 95 -155 152 -259 136z"/>
</g>
</svg>
